<svg xmlns="http://www.w3.org/2000/svg" viewBox="-31.15 0 213 213">
<!-- SVG created with Arrow, by QuiverAI (https://quiver.ai) -->
  <style type="text/css">.cls-0 {fill:#425161;}
.cls-1 {fill:#040911;}
.cls-2 {fill:url(#SVGID_1_);}
.cls-3 {fill:#F88E2D;}
.cls-4 {fill:#AAB7C1;}
.cls-5 {fill:none;stroke:#F88E2D;stroke-width:1.48;stroke-miterlimit:10;}
.cls-6 {fill:#707070;}
.cls-7 {fill:#FFBE85;}
.cls-8 {fill:none;stroke:#F88E2D;stroke-width:1.73;stroke-miterlimit:10;}
.cls-9 {fill:none;stroke:#F88E2D;stroke-width:1.4;stroke-miterlimit:10;}
.cls-10 {fill:#405366;}
.cls-11 {fill:#BDC7CF;}</style>
  <path class="cls-1" d="m140.5 202c-9-0.1-18.1-0.3-27.2-0.3l-5.3-30.7c15.4-1.7 27.3-11 28-13l1.7-2.5h-28.7l-2.1-16 17.7-5.9c2.7-0.9 3-1.2 3.8-3.2 0 0 4.7-2.5 5.6-5.9s0.4-8 0-11-6-4.5-6-4.5l-7-24-4.7-8.8 0.7 0.8 1.3-1.5c1.2-1.5-1.3-2.5-1.3-2.5-6.6-4.2-13.8-6.4-22.4-9.4 0.3-0.6-1.2-0.6-1.2-0.6v5c0.5 1.3 1 2.3 0 4.2v13.8h-6l-3.4 1-0.6 1h3.9c-1.4 2-3.3 1.4-3.3 2s-1.5 2.8-2.1 3-0.1 3.2-2.2 5l-0.3 3c2.6 7-2.4 10.8-6.4 13.2l0.4-2.2c-1.4-3-3.6-5-3.4-6l1-3.9c-1-1.2-0.6-2.4-1-3-0.6-0.8-1.6-2.1-2-4.3-1-0.8-1-1.8-1-1.8-0.9-0.5-2-2.5-2-3l-3-1v-1h3.5l-0.9-1h-3.1l-0.5 2v2.2c-0.9 3.8-5.6 3.4-5.6 0.8l-0.4-5h-1.6c0.2 8-1.4 22-6.1 29.6 0.7 2.4 7.7 9.4 7.7 9.4l8.8 2c6.2 1 11.6-1 14.2 1h-6c-1.7 1.6-2 2-1.6 6l1.6 5-6.5 2 4.6 4.7v1c-2.1 1.3-3.1-2.7-6.5-3.7l-2.6-2.6-1.4-0.4-1.1 10.1-2.3-10.1-1.6-0.1-1.3 11.1-8.8 2 2.1-15 0.9-1c-0.1-5-0.3-8 0.3-9.7-0.9-0.3-1.5-8.3-2.5-12.3l1.1-2-0.6-3c-5.3 5.8-13.8 13-20.2 13.3s-6.6-1.3-9-5.3-2.5-6-1.9-11 1.7-7.1 2.3-10c0.8-3.5 2.7-8.4 2.8-11l-4.8 2.4c-2.6 1.6-3.4-1.4-3.6-1.8-1.2-2.7-2.1-4.6-0.4-6.6l7.5-4c0.1-3.4 1.1-5 2.2-5 2.2-3.2 5.7-3.6 8.1-5 3.4-2.7 9.2 0 9.2 0.3 1.5 2.2 0.7 3.7 1 4.7l1.4 0.4c3.6-4.4 5.6-7.4 9.6-8.4l-6 8 15-7c0-6 5.5-11.4 2.4-14.4-0.8-0.6-1.8-4.4-1.9-6.6s1.5-3 1.9-3c-0.5-5-0.3-8.6 2.8-11 0.7-2 4.3-5.5 5.8-5 0.8-1.4 6.3-2 7.6-1.5 2.4 0 7.8 1.9 9 6 3.7 3.6 2.4 8.5 2.4 11.1 0 0.4 3 0.9 1.6 3.4l2.4 2-3.1 6c1.1 1 2.1 3 2.1 5.1 2 1.9 1.8 5.9 1.8 5.9l0.2 4-1.6 18.4 3.6 1.6 2-1c-0.2 6.6 1 23 4.8 29l-0.3 1h-0.1 0.2l0.2-1-0.3 1s0.5 0 0.5 1l-0.4-1z"/>
  <radialGradient id="SVGID_1_" cx="78.55" cy="-85.3" r="27.55" gradientTransform="translate(0 194)" gradientUnits="userSpaceOnUse">
    <stop stop-color="#F88E2D" stop-opacity=".4" offset="0"/>
    <stop stop-color="#F88E2D" stop-opacity="0" offset="1"/>
  </radialGradient>
  <circle class="cls-2" cx="78.6" cy="108.7" r="27.6"/>
  <path class="cls-3" d="m33.4 91v-2.1l-1.1 1.1-0.1 1.7 1.2-0.7zm1.2 12.8-0.9-3.2-0.7 0.7 1.7 8.9c1-2.2 0.3-5.2-0.1-6.4zm-1.2-4.8v-3l-1.4 1v2.7l1.4-0.7zm-15.4-21.7-0.9 0.7 1.6 1h1.6l-2.3-1.7zm0.9 6.3 1.2-0.5-1.1-0.5-0.1 1zm-3.7-4.6-1.2 1 1.3 0.5 2.4-0.8-1.6-1-0.9 0.3z"/>
  <path class="cls-4" d="m107 23-2-2.1-2.9 0.7-8.5 4.4 5 1.1 1.6 0.1 6.8-4.2z"/>
  <path class="cls-3" d="m92.2 42.4-0.4 1.9 6.8-3.3 0.4-2.4-6.8 2.8v1z"/>
  <path class="cls-4" d="m113 31.5-0.5-0.2-1.5-1.3c0.4 0.3 0-0.5 1-0.5s1.3 0 2 1c0.4 0.4 2 3.5 3 5.5v-1.9l1-2.3c-2-0.9-4.4-0.2-5-0.3z"/>
  <path class="cls-3" d="m106 23.5c0 0.1 0.3 0 0 0l2-1.5c0.4-0.4-0.6 0 2 6l0.5 1.4-1.5 0.6-3-6.5zm4.7 50.5 2.1-1h0.2l2.6 2-16.8 11-0.9-1 1.1-1 11.7-10z"/>
  <path class="cls-5" d="m38 68 20-9"/>
  <path class="cls-3" d="m18 156.4 23.3-0.4v1.9l-24.3-1.3 1-0.2z"/>
  <path class="cls-6" d="m65.4 142h7.7c1.2-1 0.5-3 0.5-3h4.4l1.7 3h4.3l4.3 2-3.8 6-15.3-0.2-3.8-7.8zm31.1 3.7-8.5 5.3 1 2h9.6l0.4-7c-0.1-0.1 0 7.6 1 7v-7l0.7 6 0.3 1-1-0.2-1 0.2-2.5-7.3z"/>
  <path class="cls-1" d="m140.5 202.1c-13.4-0.2-25.9-0.3-28-0.3h-69.9c-2.5 0-15.3 0-31.8 0.3 0.1 0-0.3 0 0.2 1.1 1.5 0.3 119.1 1.1 129.5 0.3 1.2 0 1-1.4 0-1.4z"/>
  <path class="cls-3" d="m43 154.6v3.4l6.7-1.6v-1.8h-6.7z"/>
  <path class="cls-4" d="m107.7 24-5-1-6.7 2.7 3 0.6h1.3l7.4-2.3z"/>
  <path class="cls-3" d="m106 155 29.8 1-24.3 3-3.5-1h-2v-3z"/>
  <path class="cls-4" d="m115 40h-0.5l1.5 2c1 0-1-3-1-2z"/>
  <path class="cls-1" d="m116.4 45.6 1.4-0.9c0.8-0.7 0.3-2.7 0.2-3.2l-3.6-9.2-0.4-1.3c-1-1.6-2.3-1.5-3-1.5l-4.4-6.5-7.6 4 2.2 7c-1.4 0.4-5.8-1-5.8-1l-0.3 2 2.2 4.6-2.9 3.4-2.8 1-0.8 2c-0.6 3.1-0.9 3.9-1.8 5l0.7 1 10-5 2.7 2.4 1.3 2.6h-0.2l0.4 1-0.2-0.5-0.2-0.4 0.2 0.9-0.1-0.3 0.2 0.3-0.2-0.3 0.3 0.7v0.1-0.1 0.1l-0.4-0.8 1.1 1.8c0.3 0.3-1.1-0.1 1.4 0l2.7 0.5h3.5l4.8-4.4-0.6-5"/>
  <path class="cls-0" d="m108.4 47.5c-0.8 0.1-1.4-0.5-1.8-1.5l-5.1-11 0.4-1 6.8-3.4c0.7-0.6 2.1-0.6 2.3 0.4l4.4 9.6c0.3 1 0.3 2.4-0.7 3l-6.3 3.9zm-8.7-13.8-3.1-0.4-0.1 1.7 3.9 0.4-0.7-1.7zm0.3-6.5-1.4-0.1 2 6.2 0.5 1.1 0.4-0.4-2.3-6.9 0.8 0.1zm-9 17.8-0.6 3 3.1-4 2.5-2.5-4.5 2.5-0.5 1zm8.1-5.9-2.6 2.9-3.1 5.6 1.6-1 2.7-4.2 2.4-1.4 0.6-1-1.6-0.9zm-1.1 4.9-1.1 1.6 4.1-2.2v-1.4l-3 1.4v0.6z"/>
  <path class="cls-4" d="m114.7 31.6c-0.8-1.6-1.8-1.6-3.3-1.6l1.1 1.3c0.9 0.3 3.5 7.7 4.6 10.2l-1.3 2.1-0.8 0.4 0.4-0.4h1.6c0.6-0.6-1.5-6.6-2.3-12z"/>
  <path class="cls-1" d="m116.1 44.3-7.7 3.3 6.6-3.6 0.4-0.4-0.4-1.6 3 2-1.9 0.3z"/>
  <path class="cls-1" d="m116.4 44.4-7.5 3.6c-1 0.4-2.5 0-3-3.1l3.1 6.1 0.5 4.6-5.7-1.2-0.2 0.6 0.3 0.6 4.9-0.2c2.2 0.6 1.7 1.1 2.7 0.1l5.9-2.9c1.2-0.6 1-2.6 0.5-3.7l-1.5-4.5z"/>
  <path class="cls-1" d="m116 34 0.4 5.1 0.6 0.9h-0.6c0.6-0.6 0.6-0.5 0.6 0l0.1 1h-0.7c1.6 0 0.6 2 0.1 4h0.9l-0.3-1c1.9 1-0.1 2-0.1 1v1c2.1-2 0.1-4.9 0.1-5l1.4-1.6c1-0.4 1-1.4-0.9-5.4h-1.6z"/>
  <path class="cls-1" d="m117 44-8.1 4-0.5 7.6h0.6v0.4l8.6-4c1-0.4 0.3-1 1-2l-1.6-6z"/>
  <path class="cls-3" d="m94 123-3.6 2.6-3.4-2.6v-2.5l2-2.5 1-2 2 2.5 0.6 2.1 1.4 2.4z"/>
  <path class="cls-7" d="m89 123 1.4-4 1.8 3.5-1.8 1.7-1.4-1.2z"/>
  <path class="cls-1" d="m97 48 0.5-1.5 3.5-1.5v2l-4 1z"/>
  <path class="cls-3" d="m114.4 114.5-4.1 1c3.3-3.7 8.5-5.5 11-4.1-1.7 0-5.6 2-6.9 3.1z"/>
  <path class="cls-8" d="m87.5 116.4 3.4-3 3.4 2.8"/>
  <path class="cls-9" d="m86.6 117.5-2.2 2v4.3l1.7-0.2"/>
  <path class="cls-8" d="m86.6 123.9 4 4 3.4-2.5"/>
  <path class="cls-3" d="m109 122-3.5 2h4l2.5-1-3-1zm5.5-4.8c-1.1-0.2-3.8 0.8-3.5 1.4l3.8 0.8c1.3 1 0.8 0.6 1.7 1.2l-8.5-1.6 1.5-1h-0.5 1.4l4.1-0.8zm-17.5 4.8 5.6 2 1.4 2-7-2.1v-1.9z"/>
  <path class="cls-10" d="m95 65.4 3.9 1.2-3.5 3.3-0.4-4.5zm0.5 7.9 5.3-5.7 2.6 0.8-8 7.8 0.1-2.9zm0.1 5.4 8.1-8.7 1.2-0.9 1.9 0.7-11.4 10.1 0.2-1.2zm0 4.7v-1l10.4-9.4 0.8-1 0.2-1 2.6 1-14 11.6v-0.2z"/>
  <path class="cls-3" d="m110.4 71.4-2-0.8-1.3 1.4 2.5 1 0.8-1.6z"/>
  <path class="cls-3" d="m105.9 69.4-2-0.8-1.6 1.3 2.8 1.1 0.8-1.6z"/>
  <path class="cls-4" d="m101.9 35 8-3.7 1.1-0.3 0.9 0.6-9.9 3.4h-0.1z"/>
  <path class="cls-10" d="m57.4 67.6-0.5 22.4c0.2-0.6 1.7-1.4 3.2 0l-0.1-14-0.6-2-0.5-5-1.5-1.4zm8.6 10.4c-0.1 2.6 2 6 4 8-1.4 0-5.6-4-5.4-7.6l1.4-0.4zm19.6 0.4c0.4-0.4 0.8 0 0 0h0.4c-0.4 3.6-2 5.6-4 7.6 1-2 3.6-4.4 3.6-7.6z"/>
  <path class="cls-10" d="m93.6 65.6v23.8c-0.6-0.4-1.6-0.4-2.6 0l-0.4 0.6-0.2-13.6 0.5-1.4 0.7-2-0.2-3 2.2-4.4z"/>
  <path class="cls-4" d="m35 68.5-2.6-2-1-0.5-1 0.4 4 3.1 0.6-1z"/>
  <path class="cls-10" d="m28.9 66.9h-1.5l-1 1.5 4 3.2 1.6-0.2 2-1.4-5.1-3.1z"/>
  <path class="cls-10" d="m24.4 68.9v1.1l5 4.4h2.2l0.8-2.8zm-4 2.6 0.5 0.9 3.5 3.6c0-1 0.5-1.4 3-2l-3-4c-1.5 0-3.5 0-4 1.5z"/>
  <path class="cls-11" d="m20.4 72-0.8 0.4 0.4 1.6 5 1.6 0.9-0.6-5.5-3z"/>
  <path class="cls-10" d="m35.4 73.4c-0.8 1.6 1.6 2.6 4 2.2l1.5-0.6-0.5 1c-0.4 2-0.8 5.1-1.4 6-1.4 1-2.1 2-5.4 5h-0.7 0.7c2.5-0.4 4.4-3 7-5 0-3 2-8-0.2-8.6h-5zm-17.8 10.6 1.3-0.4 0.1-1-0.9-0.2-0.7 0.5 0.2 1.1zm-1.6 0.6 0.9-0.6-0.5-1.1-1.3 0.7c0.8 0 0.9 0.4 0.9 1zm-1-2.6-0.4-0.4-1.1 0.4 0.9 1 1.2-0.4-0.6-0.6z"/>
  <path class="cls-10" d="m22 90v-0.4c3.4 1.8 9 1.4 12.4-0.5v1.9c-4.8 1.9-9.5 3-12.4-1zm5.4 5.4h6.1l0.6-0.4 0.5-2.4c-2.7 0.3-5 2-7.2 3v-0.2zm-0.3 3.6h0.3c2.5 2.6 4.6 0.6 7.2 0v-3c-2.7 1.6-5.6 2.6-7.5 3zm3.5 15.4c1.4-1.4 2.8-6.9 2.8-6.9-1.4 0.5-3.5 1.9-7 1.9 2.6-1.4 5.7-2.4 5.7-4.4l-0.6-0.4c-1.9 0.4-4.1 0.4-4.6 0.4l-1.5-0.4c4.6-0.6 9.2-3.6 9.2-3.6l0.8 3.6c1.5 5-1.9 8.4-4.8 9.8zm6.3-3c0.6-4.4 0-8.4-0.5-10.4 3.2 3.6 2.2 7 0.5 10.4zm-0.7-15h0.2v-3.4c2.7 0.6 6.1 3.4 6.5 5.4-2.3-1.4-4.3-2-6.7-2z"/>
  <path class="cls-3" d="m25 80-0.3 0.5 0.3-0.5z"/>
  <path class="cls-10" d="m50.9 86-8.9-4h-0.1l0.1 0.6-0.1 0.3v-0.3c-2 3-5.9 5.4-5.9 5.8l0.4 2.2c2.2 0.4 5.6 1.8 7 3.8-0.4-2.4-1.8-4.8-2.8-6.9 1.4 0.1 4 2.5 4 2.5v-3.6c2.4 2 3.9 5.2 4.4 7.2l0.6-5.2-7-5.8 9.3 3.4h-1z"/>
  <path class="cls-10" d="m42.4 78.9 0.5-2.3 9.5 8.4-0.5 1.4-9.5-7.5z"/>
  <path class="cls-10" d="m43.4 75.4 1.7-1 9.8 8.2-0.3 1.4-11.2-8.6z"/>
  <path class="cls-10" d="m46.4 73.6 2.2-1 6.5 5.4-0.2 2.6-8.5-7z"/>
  <path class="cls-10" d="m50.1 71.6 1.8-1c1.2 1.8 3.1 2.4 3.1 2.4v4l-4.9-5.4zm9.9-10.6-4.1 1 0.5 2 3.6-1v-2zm-10 3.4c-2.6 2.2-5.6 4.7-8.1 7.6h1.1l10.6-6.1-4.6 1.1 4-3c1.4-0.9 3.4-1 3.4-3l-6.4 3.4z"/>
  <path class="cls-10" d="m55.1 69-2.2 1 2.1 2 0.1-3z"/>
  <path class="cls-10" d="m50.9 73.6 2-1.2 2.1 0.6-1.5 2-2.6-1.4z"/>
  <path class="cls-10" d="m47.1 75 2.3-1 1.6 1-3.1 1-0.8-1zm-2 1.6 1.3-1 1 1.4-1 0.9-1.3-1.3z"/>
  <path class="cls-10" d="m42.4 78.1 0.5-1 9 6.5-9.5-5.5z"/>
  <path class="cls-3" d="m63.6 144c1.8 0 3 5.6-1 8.6l26.4 0.4c-3.4-3.4-2.4-7-1.1-8.6-3.3 1-2.9 4.6-5.9 4.6-1.4 0-3.1-1-3.4-1-1 2.9-3.6-0.6-3-5.1-1.5 1.1-2.2 5.1-2.2 5.1-1.8 3-5.4 3-6.8 0.6 0 3.4-4 4.8-5 4.4l2-9z"/>
  <path class="cls-7" d="m65.1 152.6c0.9-0.6 1.8-1.6 1.9-3.6 1.4 2.6 4.6 2.6 5 1 2.1 0.6 1.4-3 3-5.4l0.9-2c-0.6 5.4 1.6 9.4 2.7 5.4 1 2 4.4 4.6 6 1 0.5 3 1.4 3.6 1.4 3.6h-20.9z"/>
  <path class="cls-10" d="m49.6 132v-2l19.5 1-0.5 1.6-19-0.6zm0 4v1.5l19.5 1.5-0.5-1.6-19-1.4zm10.2-2.5-1.7-0.1 4 3.6h4.5l-6.8-3.5z"/>
  <path class="cls-10" d="m62.6 134h6v2h-3.2l-2.8-2z"/>
  <path class="cls-3" d="m51.4 153 51.6-0.1-0.1 2.5-51.5-0.8v-1.6z"/>
  <path class="cls-6" d="m76.6 131h-3.2c-1.8 0-2.8 1-2.8 2.4 0 3.1 0 4.6 2 4.6-2.6-1.4-2-5.4 0-6h4.8l-0.8-1z"/>
  <path class="cls-6" d="m79.1 136.4h-3.9l0.2-0.4-0.5 1.6 4.2 0.4c0.5 0 1-1.4 0-1.6z"/>
  <path class="cls-10" d="m56.9 126.6-0.5-0.2-1.8-8.3c1.5 3.9 6 8.8 6 9.4l-3.7-0.9zm-9.5-10c5.6-6 7.6-13 7.6-21 0.4 7.4 0 12 1.1 14.8 0.5 1.6 3.3 8.2 5 10.6 1.9 3 11.5 5.6 14.5 5.6l-6.6-7.6c-3-4-8-10.6-9.6-16.4 2.2 3.4 17.6 18 26.6 24l-2 0.4-2.4 1.6-3.6 3.4h-4c-2.6 0-3.4 0.6-2.4 5l-1.5-0.6c0.3-1.4-0.1-5.8 0.9-6.4l0.4-0.6-11.4 0.6-10.6-0.6-0.4-4.4-1.6-8.4z"/>
  <path class="cls-3" d="m80 137"/>
  <path class="cls-1" d="m42 157.6v-0.6h1.5l0.1 8 1-9h7v14.4h1v-14.4h49.4v9l1.1-8 4.5-0.1 0.3 5.1c0.7-1.6 0.5-5 2.1-4.4v4.4c9.1 0 19.4-2.4 25.8-5.4v-0.6h-0.4c-5.4 4-14.8 11.6-27 15l4.2 31.6h-20.6l-7.4-13.2 9.8-0.4c4.2 4 11 6 11 6h-14c-1.4-1.4-6.8-5.6-6.8-5.6h-13.6l-10.4 5.6h-15s9-2 11.9-5.6h9.9l-17.2-13.5 0.4-3.3c7.8 0.8 10.3 5.4 9.8 10l-10.4-6.7 1.6-9.9-8.7 5c-12.3-2-22.5-7-26.9-13.4l25.4 3.4v-4l0.6 0.6z"/>
  <path class="cls-10" d="m92 184.4c-1.9-6.4 2.4-11.8 9.9-12.3l0.6 5.9-10.5 6.4z"/>
  <linearGradient id="SVGID_00000067938670232749424350000012550007000659694458_" x1="67.01" x2="84.01" y1="174.5" y2="174.5" gradientTransform="matrix(1 0 0 -1 0 214)" gradientUnits="userSpaceOnUse">
    <stop stop-color="#6F8292" offset="0"/>
    <stop stop-color="#4F6072" offset=".8425"/>
  </linearGradient>
  <path d="m64.6 31.9c2.4-1.5 3-1.9 5.4-0.9 5 1.9 5.1 1.9 8 0.9 4.4-1.9 5.5-1.9 6.5 0.7 1 2.4-1.1 5.4 1 8.4l1.1 1.4-1.1 7.1-2.5 2-3.5-0.5h-3.4l-1 1-3.1-2-2 1.5-3.4-1-2.2-3v-6.5l2.2-2.6c-0.5-4-0.6-6.4 1.3-7.8l-3.3 1.3z" clip-rule="evenodd" fill="url(#SVGID_00000067938670232749424350000012550007000659694458_)" fill-rule="evenodd"/>
  <path class="cls-4" d="m66 41c1.6-2 5-1 6.6-0.6v1c-1.5-0.4-6-1.4-6.6-0.4zm10.6-1c0 0.6 1 1.4 1.4 1.4l5-1.4 1 0.4c-2-2.4-6.1 0-7.4-0.4z"/>
  <path class="cls-1" d="m85 45 1-0.6-2-0.8 1.6-1-1.6-2.2h-2.1l-4.5 1-0.8-1.4c-1 0-0.6 2.4-0.6 2h-2l-0.4-2.4-0.6 1.4-5-0.6-1.5 0.2-1.6 2 1.5 1-1.4 0.8 1.6 0.2 1.3-0.2c2.1 1 3.5 0.6 4.5 0.6v3l-2.4 1h-2.4c1.4 1 3.4 0 4.8-1.4-0.4 1.4 2.6 2.4 0.6 3.4l2 0.6h1.6l2.4-0.6-2-3 1-2c2 1 4.4 1 5.5 0.4l2.4-1.4h-0.9z"/>
  <path class="cls-4" d="m73.6 49.6 0.4-5.6 1.6-1v7l-2 0.4v-0.8z"/>
  <path class="cls-4" d="m65 58.6c0.6-4.2 6.6-7.2 8.6-5.6l1.5 1-3.1 2.6-7 2zm20.1-0.2c-0.7-4.4-6.1-7.4-9.1-4.8l1.4 2.4 7 3 0.7-0.6z"/>
  <path class="cls-10" d="m72.6 58.4 3.8 0.6 2-1.5c0-0.9-3.4-2.5-5.8 0.9z"/>
  <linearGradient id="SVGID_00000132772972181677155260000009544022814400818596_" x1="69.54" x2="81.94" y1="147.5" y2="147.5" gradientTransform="matrix(1 0 0 -1 0 214)" gradientUnits="userSpaceOnUse">
    <stop stop-color="#6F8292" offset="0"/>
    <stop stop-color="#4F6072" offset=".8425"/>
  </linearGradient>
  <path d="m69.9 72-1.9-3.4 1-6.2 1.4-3.4 2.2-1.5 5.4-0.5 3 2 0.6 3-0.1 6-2.6 3.1-2.9 1.5-2 0.4-4.1-1z" clip-rule="evenodd" fill="url(#SVGID_00000132772972181677155260000009544022814400818596_)" fill-rule="evenodd"/>
  <linearGradient id="SVGID_00000147211768368007612700000014019081654236796884_" x1="70" x2="80" y1="185.5" y2="185.5" gradientTransform="matrix(1 0 0 -1 0 214)" gradientUnits="userSpaceOnUse">
    <stop stop-color="#6F8292" offset="0"/>
    <stop stop-color="#4F6072" offset=".8425"/>
  </linearGradient>
  <path d="m72 25 3.4-1 2.2 0.1 0.4 0.3-1 3.1v1.9l-1.6 0.6-4.4-4 1-1z" clip-rule="evenodd" fill="url(#SVGID_00000147211768368007612700000014019081654236796884_)" fill-rule="evenodd"/>
  <path class="cls-10" d="m68 28 5 1.6c-1.4-2.5-4-3.2-5.4-2.1l0.4 0.5zm10.1 1.6 2.9-2.6c-2.6-0.4-4.4 2-4.4 3.4l1.5-0.8z"/>
  <path class="cls-6" d="m70.6 53.6-3.5 2.4-1.1 3 4.6-4 2.8-1.4-1.8 2.6 2.4-1.6v-1.2l-1.1-0.5-2.3 0.7zm5.8 0 1 1.8 3 1-2.4-2.4 3.6 1 2.4 3.4-1.6-4-2.4-1.4-2-0.4h-1.4l-0.2 1z"/>
  <path class="cls-3" d="m80.6 127.6-1.5 0.4-1.1 1 3.6 9 7.8 4h1.6l-9-4-3.9-8.5 2.5 0.5 3.4 7.4 8 3.2h2l-9.1-4-4.5-8.6 0.2 0.6 1.4-2-1.4 1z"/>
  <path class="cls-10" d="m97 127c-1.4-1-1.6-3-0.6-4.4l-0.4-2.2-2.5 1.2-0.5-1 2-1.6-0.4-0.4-1.6 0.4-1-2 2-0.6 1.4 0.6 0.2-0.1 1.3 2.1h0.1-0.1 0.1l-0.1 3 0.1 2.4 0.6 1.6 3 2-3 6.9-6.7-0.8-3.8-4.7 0.5-1.4 3.4 4h5l3-3.4-2.1-1.6h0.1z"/>
  <path class="cls-5" d="m89 120 1 1-0.5-4"/>
  <path class="cls-3" d="m83.4 129v-0.6l0.6-0.8"/>
  <path class="cls-8" d="m95 121.6 1-1.6"/>
  <path class="cls-3" d="m91.6 116-2 6"/>
  <path class="cls-3" d="m104.6 127c-1-3-3.2-3-7.2-4.4l0.2 0.8 4.9 2.1 2.1 1.5z"/>
  <path class="cls-10" d="m105 124 3 6 4-2-3.4-3-3.6-1z"/>
  <path class="cls-3" d="m108.9 118-1.5 2 3.1 1 1-0.4zm0.1 2 3.5 1 1.9-2h-4.5l-0.9 1z"/>
  <path class="cls-10" d="m108.4 116.6-1 3.4 4.6 1 4 0.6z"/>
  <path class="cls-3" d="m108.4 117.2 7.6-0.2c5 0 6.6 2 6.6 2-3-1.4-11.1-1-14.2 0v-1.8z"/>
  <path class="cls-10" d="m115.4 79.1-5 3.5 6.1 1.4 0.4 1v1l-0.5-1 2.6 1.6-2-6-1.6-1.5z"/>
  <path class="cls-1" d="m99 127 1 1-3.4 5h-5.7l-3.5-4 2.6 5 7.6 0.9 3-2.9v-3l-1.6-2z"/>
  <path class="cls-8" d="m86 128.6 1 0.8"/>
  <path class="cls-3" d="m74.1 134-0.6 5 1.5 3 1.9 2.6 0.1-0.6v-5l-2.2-3.6z"/>
  <path class="cls-3" d="m116 113.6c3 0 6.9 1 9.6 4-2.6-2.2-9-2.6-13.6-2.2l4-1.8z"/>
  <path class="cls-3" d="m116 114c2-1.4 5-3.4 9-2 1.1 0 0.4 0.1 0.4 0.1l-0.4 0.4-3.9 0.5-2.6 1h-2.5z"/>
  <path class="cls-10" d="m101.4 111.4c-2.8-5.4-5-15.5-4.8-24.3l1.4-0.1 1 14 3.6 14-1.2-3.6z"/>
  <path class="cls-3" d="m72.5 97 4.5 1 1-1-1 4h-4l-1-2 0.5-2z"/>
  <path class="cls-10" d="m72 102v4l3 4-1-5 1-2.4-1.6-0.6h-1.4z"/>
  <path class="cls-3" d="m75.6 102-0.2 9c2-1 2.6-5 1.6-8.6l-1.4-0.4zm2-5.6 0.4 5.6c1.4-0.6 1.6-4-0.4-5.6z"/>
  <path class="cls-10" d="m77 102 1.1 7 1.3-2.1c0.7-2.9 0.2-4.9-2.4-4.9z"/>
  <path class="cls-3" d="m72.5 95.4 4.5 0.6c2 0 3.6-3.6 2-5.6l-6.5 5z"/>
  <linearGradient id="SVGID_00000137132731182861883540000010029260511940443208_" x1="70.58" x2="75.08" y1="122.9" y2="122.9" gradientTransform="matrix(1 0 0 -1 0 214)" gradientUnits="userSpaceOnUse">
    <stop stop-color="#6F8292" offset="0"/>
    <stop stop-color="#4F6072" offset=".8425"/>
  </linearGradient>
  <path d="m70.6 90 0.4 4 2.6 2 1.4-1 0.1-2.4-4.5-2.6z" clip-rule="evenodd" fill="url(#SVGID_00000137132731182861883540000010029260511940443208_)" fill-rule="evenodd"/>
  <linearGradient id="SVGID_00000033358357875954842290000011284754049805202015_" x1="70.6" x2="74.6" y1="126.4" y2="126.4" gradientTransform="matrix(1 0 0 -1 0 214)" gradientUnits="userSpaceOnUse">
    <stop stop-color="#6F8292" offset="0"/>
    <stop stop-color="#4F6072" offset=".8425"/>
  </linearGradient>
  <path d="m71 86 3.6 2-1 3-2.5-3-0.1-2z" clip-rule="evenodd" fill="url(#SVGID_00000033358357875954842290000011284754049805202015_)" fill-rule="evenodd"/>
  <linearGradient id="SVGID_00000119101920377975998970000016134475381744897653_" x1="70.43" x2="75.43" y1="130.2" y2="130.2" gradientTransform="matrix(1 0 0 -1 0 214)" gradientUnits="userSpaceOnUse">
    <stop stop-color="#6F8292" offset="0"/>
    <stop stop-color="#4F6072" offset=".8425"/>
  </linearGradient>
  <path d="m70.6 80 1.4 3 3.1 3 0.3-1.1-1.3-2.5-3.5-2.4z" clip-rule="evenodd" fill="url(#SVGID_00000119101920377975998970000016134475381744897653_)" fill-rule="evenodd"/>
  <linearGradient id="SVGID_00000158000399810666645410000003963665694928623663_" x1="69.4" x2="74.4" y1="135.6" y2="135.6" gradientTransform="matrix(1 0 0 -1 0 214)" gradientUnits="userSpaceOnUse">
    <stop stop-color="#6F8292" offset="0"/>
    <stop stop-color="#4F6072" offset=".8425"/>
  </linearGradient>
  <path d="m69.9 73.4-0.5 2 2 3 3 1.6v-1.6l-3.4-3.3 2.6 0.9 0.8-0.4z" clip-rule="evenodd" fill="url(#SVGID_00000158000399810666645410000003963665694928623663_)" fill-rule="evenodd"/>
  <linearGradient id="SVGID_00000094585765457825083990000011463849114120484639_" x1="75.49" x2="80.49" y1="134.7" y2="134.7" gradientTransform="matrix(1 0 0 -1 0 214)" gradientUnits="userSpaceOnUse">
    <stop stop-color="#6F8292" offset="0"/>
    <stop stop-color="#4F6072" offset=".8425"/>
  </linearGradient>
  <path d="m75.7 79.9 3.7-3.5-2.3 0.6 2.3-2.1 1-1.3c-2.8 1.4-5.3 2.4-4.9 6.3h0.2z" clip-rule="evenodd" fill="url(#SVGID_00000094585765457825083990000011463849114120484639_)" fill-rule="evenodd"/>
  <linearGradient id="SVGID_00000052083255196101167040000000954202408223855884_" x1="76" x2="79.42" y1="130" y2="130" gradientTransform="matrix(1 0 0 -1 0 214)" gradientUnits="userSpaceOnUse">
    <stop stop-color="#6F8292" offset="0"/>
    <stop stop-color="#4F6072" offset=".8425"/>
  </linearGradient>
  <path d="m76 81 3.6-1-2 4-1.6-1.4v-1.6z" clip-rule="evenodd" fill="url(#SVGID_00000052083255196101167040000000954202408223855884_)" fill-rule="evenodd"/>
  <linearGradient id="SVGID_00000042735606911524499130000001906440050284858662_" x1="75" x2="79.12" y1="125.6" y2="125.6" gradientTransform="matrix(1 0 0 -1 0 214)" gradientUnits="userSpaceOnUse">
    <stop stop-color="#6F8292" offset="0"/>
    <stop stop-color="#4F6072" offset=".8425"/>
  </linearGradient>
  <path d="m75.4 90 3.6-2.4 0.1-4.2-1.5 0.6-1.6 2-0.9 2 0.3 2z" clip-rule="evenodd" fill="url(#SVGID_00000042735606911524499130000001906440050284858662_)" fill-rule="evenodd"/>
  <linearGradient id="SVGID_00000098902769037222697420000010615219083018574817_" x1="68.12" x2="74.39" y1="144.2" y2="144.2" gradientTransform="matrix(1 0 0 -1 0 214)" gradientUnits="userSpaceOnUse">
    <stop stop-color="#6F8292" offset="0"/>
    <stop stop-color="#4F6072" offset=".8425"/>
  </linearGradient>
  <path d="m69 65c0.1 2.5 3.5 4 5.4 9l-5.9-6 0.5-3z" clip-rule="evenodd" fill="url(#SVGID_00000098902769037222697420000010615219083018574817_)" fill-rule="evenodd"/>
  <linearGradient id="SVGID_00000094571378769720562820000007683447519146705340_" x1="75.44" x2="81.54" y1="144.3" y2="144.3" gradientTransform="matrix(1 0 0 -1 0 214)" gradientUnits="userSpaceOnUse">
    <stop stop-color="#6F8292" offset="0"/>
    <stop stop-color="#4F6072" offset=".8425"/>
  </linearGradient>
  <path d="m76 72.6c1.6-2.6 4.1-3.6 5.6-6.6 0 4.9-4.1 6-6.1 8l0.5-1.4z" clip-rule="evenodd" fill="url(#SVGID_00000094571378769720562820000007683447519146705340_)" fill-rule="evenodd"/>
  <path class="cls-11" d="m58.6 91c0 1-2.2 1.4-1.6-0.4 0.4-1.2 2-0.6 1.6 0.4zm34.8-0.4c-0.4 1.8-2.4 1.4-2 0 0-1 2-1.2 2 0z"/>
  <linearGradient id="SVGID_00000138573502689546649510000008627204630199783084_" x1="59.4" x2="68" y1="141.4" y2="141.4" gradientTransform="matrix(1 0 0 -1 0 214)" gradientUnits="userSpaceOnUse">
    <stop stop-color="#BFC7CD" offset="0"/>
    <stop stop-color="#4F6072" offset="1"/>
  </linearGradient>
  <path d="m62.4 68c-2.4-1-3.4-3-2-5.6l2.6-1.4 0.6 2-1.2 2 2-1 2.2-2 0.8 4-2.4 2.4-2.6-0.4z" fill="url(#SVGID_00000138573502689546649510000008627204630199783084_)"/>
  <linearGradient id="SVGID_00000086652788331911418450000007885464829411205960_" x1="82.25" x2="90.95" y1="143.4" y2="143.4" gradientTransform="matrix(1 0 0 -1 0 214)" gradientUnits="userSpaceOnUse">
    <stop stop-color="#BFC7CD" offset="0"/>
    <stop stop-color="#4F6072" offset="1"/>
  </linearGradient>
  <path d="m86.1 67.4c-2.7-0.4-4.1-2.4-2.1-5l2.4-1.8 2 1.8c1.2 1.6 0.7 1.2 2.6 3-1.1 3.2-3 3.2-4.6 2.2" fill="url(#SVGID_00000086652788331911418450000007885464829411205960_)"/>
  <path class="cls-1" d="m79.1 34.6c-1.5 0-2.7 0.4-3.5 0.4l-3.2-0.4-2.3 0.4 4.9 0.6 4.6-0.5-0.5-0.5zm-10.2 2.4c4-0.4 3.5 0.4 7.1 0.5l4.4-0.9-4.8 0.4c-1.7 0.1-3-0.6-6.5 0h-0.2zm11.7 0 0.9 0.1-0.9-0.1zm-7.5 9-0.1 2.4c-1.9 0-3.4 2.6-2.4 3.6l-2.7 1c-0.3-3 2.5-3.6 1.1-4-3.9 4.6-4.4-3.4-4.4-3.4l2-0.6c0-0.4-1.5-0.6-1.6-1 0-0.4 1 0 2 0 1 1 2.6 1 4.1 1l-4.1 1.4c2.6 1.6 4.6 0.6 6.1-0.4"/>
  <path class="cls-4" d="m62.6 44-1.2-1c-1.5 0-0.4 3-0.4 4l1 1v-3z"/>
  <path class="cls-1" d="m89 44c2.1-0.9 0.6 3-0.4 3.6l1 1.4c2.5-4 2-9.4-1.6-6.4l0.4 2.4z"/>
  <ellipse class="cls-3" cx="12.4" cy="64.2" rx=".4" ry="3.7"/>
  <ellipse class="cls-3" cx="26.4" cy="48.6" rx=".4" ry="5.6"/>
  <ellipse class="cls-3" cx="32.2" cy="33" rx=".4" ry="6.4"/>
  <ellipse class="cls-3" cx="30.1" cy="56.9" rx=".4" ry="3.3"/>
  <ellipse class="cls-3" cx="29.9" cy="49.3" rx="0" ry="0"/>
  <ellipse class="cls-3" cx="44" cy="49.3" rx=".4" ry="6.4"/>
  <ellipse class="cls-3" cx="46.5" cy="42" rx=".4" ry="4.4"/>
  <ellipse class="cls-3" cx="41.4" cy="58.4" rx=".4" ry="1.9"/>
  <ellipse class="cls-3" cx="53.6" cy="17.6" rx=".4" ry="8.6"/>
  <ellipse class="cls-3" cx="49.8" cy="25.6" rx=".4" ry="10.1"/>
  <ellipse class="cls-3" cx="52" cy="50" rx=".4" ry="3"/>
  <ellipse class="cls-3" cx="100" cy="205" rx=".4" ry="0"/>
  <ellipse class="cls-3" cx="22" cy="136.6" rx=".4" ry="4.4"/>
  <ellipse class="cls-3" cx="38.4" cy="135" rx=".4" ry="4.4"/>
  <ellipse class="cls-3" cx="36.4" cy="144" rx=".4" ry="3.6"/>
  <ellipse class="cls-3" cx="27.1" cy="140.6" rx=".4" ry="2.4"/>
  <ellipse class="cls-3" cx="41.5" cy="125.6" rx=".4" ry="2.1"/>
  <ellipse class="cls-3" cx="126.1" cy="67" rx=".4" ry="2.5"/>
  <ellipse class="cls-3" cx="136.6" cy="47.5" rx=".4" ry="4.9"/>
  <ellipse class="cls-3" cx="126.4" cy="66.9" rx="0" ry="0"/>
  <ellipse class="cls-3" cx="115.6" cy="62.2" rx=".4" ry="2.9"/>
  <ellipse class="cls-3" cx="115.6" cy="62.2" rx="0" ry=".4"/>
  <ellipse class="cls-3" cx="120" cy="36.4" rx="0" ry="0"/>
  <ellipse class="cls-3" cx="115.6" cy="15.6" rx="0" ry=".4"/>
  <ellipse class="cls-3" cx="115.6" cy="62.2" rx="0" ry=".4"/>
  <ellipse class="cls-3" cx="115.6" cy="146" rx=".4" ry="3"/>
  <ellipse class="cls-3" cx="120" cy="21.5" rx=".4" ry="2.2"/>
  <ellipse class="cls-3" cx="115.6" cy="15.6" rx="0" ry=".4"/>
  <ellipse class="cls-3" cx="120" cy="15.6" rx="0" ry=".4"/>
  <ellipse class="cls-3" cx="134" cy="85.6" rx=".4" ry="5.6"/>
  <ellipse class="cls-3" cx="130.8" cy="29.6" rx=".4" ry="5.6"/>
  <ellipse class="cls-3" cx="131" cy="69.1" rx=".4" ry="9.5"/>
  <ellipse class="cls-3" cx="115.6" cy="15.6" rx=".4" ry="3.7"/>
  <ellipse class="cls-3" cx="90" cy="14" rx=".4" ry="2.6"/>
  <path class="cls-1" d="m91 57c0.4-2-3-4-4-6 0-0.6-0.1-2 0-1s3 3 4 4l1 3v1zm-32-1 3.9-6 0.7 0.6-3.6 5.4h-1z"/>
  <path class="cls-10" d="m61 50 2-3 1 3-2 2z"/>
  <path class="cls-4" d="m64 51c0.4 2-3.1 4-4 7 0-3 2.4-5.1 3-7h1z"/>
  <path class="cls-10" d="m65 53v1c-0.9 1.6-3.1 3.6-3 6-1 0 0.1-4.9 3-7zm0.1 1 0.9 1-3 6c-0.9-2 1-6 2.1-7zm-5.1 3 0.4 3c-1.3 1-2.3 4.6-1.4 5.6-1.4-1.7 0-6.6 1-8.6z"/>
  <path class="cls-3" d="m67.5 105c0-0.5 0.4-2.6 0.5-2.4 0.6 0.4 0.6 3.4 0 4.8-0.1 0.2-0.5-1.5-0.5-2.4zm1.4 15.3c0-0.5 0.1-2 0.2-1.9 0.5 0.3 0.5 4.2-0.1 4.6-0.1 0.3-0.1-1.7-0.1-2.7zm-6.5-7.3c0-1.6 0.2-4.4 0.5-4.4 0.7 1.4 0.6 7.4 0.1 7.8-0.4-0.3-0.6-2-0.6-3.4z"/>
  <path class="cls-3" d="m88.9 100c0 0.9-1 4.9-2 0 0-0.9 0.1-3.4 0.6-3.4 0.4 0.5 0.6 2.5 0.4 3.4h1z"/>
  <path class="cls-3" d="m91.7 101c0-1 0-2.5-0.3-3-1 0.4-0.8 5.1 0 5.6l0.3-2.6z"/>
  <path class="cls-3" d="m95.4 100.4c0-1-0.8-4.4-1 0.5 0 2.7 1.2 2.5 1-0.5zm-1.5 6.2 0.5-1.6c0.6 1.6 0 4-0.3 4-0.2 0-0.2-2.1-0.2-2.4zm-8.5 2.9c0.1-0.9 0.1-2.6 0.5-2.9 0.5 1.4 0.5 5.4-0.3 5.8l-0.2-2.9zm-4.5-63.5 3.1-1 1.6 0.4v-0.8l0.4 0.4c-0.6 1-3.6 2.6-5.9 0.4l0.8 0.6zm-12.9 0 3.4-0.6c-2 2.2-4.8 0.6-4.4 0.6h1z"/>
  <path class="cls-3" d="m81 115.7c0-1 0.4-2.8 0.5-2.3 0.5 1.3 0.1 5.5-0.1 5.5-0.4-0.3-0.4-2.5-0.4-3.2zm11-6.8-1.1 2.1c-1.8-1.5-0.9-3-0.5-4.4l1.6 2.3zm5 5.1c0-0.6 0.6-2.6 0.6-2 0.5 1 0 4.4-0.2 4-0.4 0-0.4-1.4-0.4-2zm2.1-5 0.3-3c0.6 1.4 0.2 6 0 6.1l-0.3-3.1z"/>
  <linearGradient id="SVGID_00000080160768101424952020000006366773804795347855_" x1="59.5" x2="67.2" y1="141.7" y2="141.7" gradientTransform="matrix(1 0 0 -1 0 214)" gradientUnits="userSpaceOnUse">
    <stop stop-color="#BFC7CD" offset=".135"/>
    <stop stop-color="#4F6072" offset=".9965"/>
  </linearGradient>
  <path d="m59.9 68.4c-1.5 3-0.5 9.2 5 7.6 2.5-1.1 3.5-4.6 1.5-7.6l-3.4 1.6-3.1-1.6z" fill="url(#SVGID_00000080160768101424952020000006366773804795347855_)"/>
  <linearGradient id="SVGID_00000123434365789224782740000003210039129519397164_" x1="82.43" x2="90.62" y1="141.6" y2="141.6" gradientTransform="matrix(1 0 0 -1 0 214)" gradientUnits="userSpaceOnUse">
    <stop stop-color="#BFC7CD" offset=".135"/>
    <stop stop-color="#4F6072" offset=".9965"/>
  </linearGradient>
  <path d="m83 68.4c-3.1 4.2 2.1 10.2 6.9 7.2 2.6-1.6 2.5-7-0.5-8l-2.8 1.8-3.6-1z" fill="url(#SVGID_00000123434365789224782740000003210039129519397164_)"/>
  <path class="cls-10" d="m63 66c-1.5 0-2-2.4 0-3v-1.6c-3.6 0.6-4 5.6 0 6.6 1.1 0.4 5-1 4-5l-1.6-1c1 2 0.5 4-2.4 4zm24.4-4c3 1 2.7 6-1.3 5-2.1-1-1.1-4-0.5-4h-1.6c-1.6 3.9 0.9 6 3.6 5 3-1 3.9-4.4 0.4-6h-0.6zm-23 7c2.6 2 0.6 6-2 5.6-3.4-0.6-3.4-4.6-0.4-5.6-3.6-2.4-4.4 6 0.4 6.6 4.6 0.4 7.6-5.6 2-6.6zm22 0c3 1 3 5-0.8 5.6-2.2-0.6-3-3.6-1.2-5.6l-1-0.6c-3.8 3 1.2 9.6 5.5 7.2 4.1-1.6 4-9.6-1.5-7.2"/>
  <ellipse class="cls-3" cx="131.4" cy="91.7" rx=".4" ry="5.4"/>
  <ellipse class="cls-3" cx="137.9" cy="102.2" rx=".4" ry="4.1"/>
  <ellipse class="cls-3" cx="133.4" cy="138.2" rx=".4" ry="3.5"/>
  <ellipse class="cls-3" cx="120.1" cy="144.6" rx=".4" ry="3.6"/>
  <path class="cls-10" d="m71 59c-1.6 2-2 4 0 7-0.4-2 0-6 1.6-7h-1.6zm1.6 0h1.4c-1.4 3-1 4 0 5-0.4-2 2-5 2.1-5 1.5 2 0.4 6 0.9 8l-1-2-0.4 4c-4-5-2.6-9-3-10zm3.8 0c2.2 2 1.6 4 1.6 5 2-2.6 1-5 0-5h-1.6zm-13.4 65c0-1.1 0-4-0.1-4-0.9 0-0.9 8.4 0.1 7.6l0.4-3-0.4-0.6z"/>
  <path class="cls-1" d="m79.5 50v-1l-1.9-1 0.4 2c1 0 1.1 1.1 0.6 1h-1.2c-0.8 0-1.4 1-2 1-0.4 0-0.8-1-2-1h-0.9c-0.5 0.6-0.5-1.4 0.9-2l-0.4-0.6c-2.1 0.6-2 2.6-2 3.6 2 0 3.1 2 4.4 1 1.2 1 0.7-1 2.2-1h2c0.4 0 0.3-1-0.1-2zm3.4-1h-1.4c1.5 2.1 1.5 3 1.1 4l-3-2v1.4l2.9 0.6c1.9 0.6-0.4-3-2.1-3.6l2.5-0.4z"/>
  <path class="cls-10" d="m75.7 91.3c1.8-0.9 3.3-2.3 3.9-3.3 0 2-3 3-4 7.6l0.4-1.2 3-1.4-3 1 2 2c-1.6 0.4 2.1-2.4 1-6-1.5 0-3.4 3-3.4 1.4"/>
  <path class="cls-1" d="m72.2 91 2.8 2.4-2-0.4c2 2 1.6 3 1.6 3-0.6-1.4-3.6-2.4-3.5-5.6l1.1 0.6zm1.8 7-1-0.4c0-0.6 4 0.4 5-0.6 0.4 1 0 2-4 1zm-1 1 4 1-2 1c-2 0-2.4-1-2-2zm6 4-0.9-1h-1.1l1 2-0.4 5 1.4-2c0.1-1 0-4 0-4zm-6.8-1 0.8 1c-0.6 2 1 4 1 6-1.4-1.4-3-4-1.8-7zm2.8 0 1 2-0.4 3-1.5-4.4 0.9-0.6zm1 2-0.4 1h0.4v-1zm0 1c0.6 3-1.4 5-1 6.4 2-1.4 2-4.4 1-6.4zm5.1-46 1 1.6 3.9 2.4-0.4-2-4.5-2zm-16.7 2v2l4.2-3-3 1h-1.2z"/>
  <path class="cls-10" d="m78.4 53.9 4.6 4.7 2 0.4-3.6-4-3-1.1zm-12.8 4.7-0.6 1.3 2-2.9 4-3.1-2 0.5-3.4 4.2zm19.4-4.7 3 5.1c0-3-2-5.1-2.4-6.1l-0.6 1zm1.1-1.9 3.9 4-2.4-5-0.6-1-0.9 2zm-1.1 3 2.4 3 0.6 2c0.1-2-1.4-6-2.4-6.1l-0.6 1.1zm4.9 2v3c0.7 1 2.1 2.4 1.5 6 1.6-3 0.6-7.6-1.5-9z"/>
  <path class="cls-1" d="m90 59v3l2 2c0.4-1.6 0-4-2-5zm-5.1-4.6 1.7-1.4m0.8 10 0.2-2m-18.6 0 1-2m-6 2.4 0.4 1.6m1.6-5 1-2"/>
  <path class="cls-10" d="m86.4 78c-0.5 3-3.4 7.1-4.4 7 1.1-0.6 4-5 3-6.9l1.4-0.1zm-20.8 0h0.8l1.1 3-0.5-4 2 2c-1.4 5 2 6.4-0.4 6-2.1-1.6-3.2-5-3-7z"/>
  <path class="cls-10" d="m67 76.6c0 3.4 0.9 5 2.9 8.4-2.3-1.6-3.5-5-2.9-8.4zm14.4 8c1.5-1.6 3-5 2.6-7.6l-1 2v-3l-1.4 2-0.2 3 0.7-1.1c-1.1 3.1-0.2 2.1-0.7 4.7zm-11.4-10.6 4.4 3-0.4 2-3-2 2 3c-3.1-2-4.1-5-3-6zm6 4.6c0-2.2 5-4.6 4.4-4.6 0.2 3-3.4 4-4.8 8l4.8-4-4.3 3-0.1-2.4zm-2.4 4.4 1.8 1-1 1c-0.4 0-3.4-2-3.8-4l4.4 2-4.4-3h0.4l2.6 3zm2 6c0.5 0 3.4-2 3.4-3-1 0-2 0.6-3.9 2.6 0-2 3-4 4.4-5 0.5 2.4-2.5 4.4-3.9 5.4zm-4.6-3 3 3-0.1 2-2.9-2.6v-2.4zm5-2-0.4-1 3.4-2.6c1 1.6-2.4 3.6-3 3.6z"/>
  <path class="cls-3" d="m104 100.7c0-0.8-0.1-2.6 0-2.3 1 0.6 0.6 5.2 0 5-0.1 0 0-2 0-2.7z"/>
  <path class="cls-10" d="m104 97c0-4 3.4-7.6 4-8-2 3-2 6-4 8zm6-8-8 4m0.4-3.6c0.5-0.8 1.6-1.8 2.2-2.4l-2.2 5.6v-3.2z"/>
  <path class="cls-4" d="m126 112.4-1-0.4m-22 17-0.6-3m4-1 2.6 4m-4-5 4 1 2 3"/>
  <path class="cls-3" d="m92 120"/>
  <path class="cls-10" d="m87 129 4 5 6 4-4.4-0.4-4.2-1.6-4.4-6v-1h1 2z"/>
  <path class="cls-1" d="m99.6 127-2.6 3.6h-6l-3-2.6c-1.9-1.6-4-2-5 0h1c1.6-1.4 3.6 1 5 2.6l2 2.4 6.6 0.6 3-3.2v-2.4l-1-1z"/>
  <path class="cls-3" d="m115 118a5.7 3 0 1 1-5.7 3 5.7 3 0 1 1 5.7-3z"/>
  <path class="cls-10" d="m109 122c2.4 0 5 2 5.4 5l2.2-1c-1.2-2-4.6-4.4-7.6-4zm4.5-1.4c1.6 1 2.5 3.4 2.5 4.4l1.4 0.4c0.5-0.8-2.9-5-4-4.8h0.1z"/>
  <path class="cls-10" d="m114 120.6 4.4 4.4c0.6-1-2.4-5-4.4-4.4zm0.6-12 4.9-4.6c-2.9 0.6-10.5 4.4-9 9.6 1.9-3.6 8.5-5 12.5-5-3-0.6-5-0.6-8.4 0z"/>
  <path class="cls-10" d="m118.1 101c-2.2-0.4-11.2 3.6-9.7 8 2-4 6.2-6.6 7.7-7.4zm0.9-8-4.5 3 5 1-0.5-4z"/>
  <path class="cls-10" d="m118 105h1l-1 4 1-1-0.1-2.4-0.9-0.6z"/>
  <ellipse class="cls-3" cx="120.6" cy="205" rx=".4" ry="0"/>
  <path class="cls-1" d="m43 73 6-8-3 0.6-5.4 6.4 0.4 0.6 2 0.4z"/>
</svg>